<svg width="424" height="106" viewBox="0 0 424 106" fill="none" xmlns="http://www.w3.org/2000/svg">
<g clip-path="url(#clip0_0_3)">
<path d="M99.4089 38.2855L67.0875 5.96411C63.2379 2.11449 58.1238 0 52.6865 0C47.2493 0 42.1352 2.11449 38.2926 5.96411L5.96411 38.2855C2.12151 42.1352 0 47.2493 0 52.6865C0 58.1238 2.12151 63.2308 5.96411 67.0805L38.2855 99.4089C42.1281 103.252 47.2422 105.373 52.6795 105.373C58.1167 105.373 63.2308 103.252 67.0734 99.4089L99.4019 67.0805C103.244 63.2379 105.366 58.1238 105.366 52.6865C105.373 47.2493 103.252 42.1281 99.4089 38.2855ZM96.4514 64.123L64.13 96.4514C61.0742 99.5073 57.0068 101.193 52.6935 101.193C48.3732 101.193 44.3129 99.5073 41.2571 96.4514L16.375 71.5694H37.7727L44.8959 83.9121H60.4911L68.2887 70.4103L60.4911 56.9085H44.8959L37.7657 69.2371H14.0427L8.92861 64.123C5.87279 61.0672 4.18682 57.0068 4.18682 52.6865C4.18682 48.3662 5.87279 44.3058 8.92861 41.25L41.25 8.92861C44.3058 5.87279 48.3662 4.19385 52.6865 4.19385C57.0068 4.19385 61.0672 5.87279 64.123 8.92861L89.4687 34.2743H67.6073L60.4841 21.9246H44.8889L37.0913 35.4264L44.8889 48.9282H60.4841L67.6073 36.5855H91.794L96.4514 41.243C99.5073 44.2988 101.193 48.3592 101.193 52.6795C101.193 57.0068 99.5073 61.0672 96.4514 64.123ZM41.9244 70.4032L47.3055 61.0812H58.0676L63.4486 70.4032L58.0676 79.7252H47.3055L41.9244 70.4032ZM63.4486 35.4264L58.0676 44.7484H47.3055L41.9244 35.4264L47.3055 26.1044H58.0676L63.4486 35.4264ZM67.8743 42.36L62.6829 51.3518H42.6901L37.4988 42.36H25.5775L19.6134 52.6865L25.5775 63.0131H37.4988L42.6901 54.0212H62.6829L67.8743 63.0131H79.7955L85.7526 52.6865L79.7955 42.36H67.8743Z" fill="#EEEEEE"/>
<path d="M161.87 66.7453C162.507 66.7453 163.039 66.9685 163.464 67.4151C163.89 67.8616 164.102 68.4038 164.102 69.0417V73.6983C164.102 74.2937 163.89 74.8146 163.464 75.2611C163.039 75.7077 162.507 75.9309 161.87 75.9309H130.358C129.762 75.9309 129.241 75.7077 128.795 75.2611C128.348 74.8146 128.125 74.2937 128.125 73.6983V69.0417C128.125 68.4038 128.348 67.8616 128.795 67.4151C129.241 66.9685 129.762 66.7453 130.358 66.7453H161.87ZM130.358 56.858C129.762 56.858 129.241 56.6347 128.795 56.1882C128.348 55.7416 128.125 55.2207 128.125 54.6253V49.8412C128.125 49.2458 128.348 48.7248 128.795 48.2783C129.241 47.8318 129.762 47.6085 130.358 47.6085H158.999C159.637 47.6085 160.179 47.8318 160.626 48.2783C161.072 48.7248 161.295 49.2458 161.295 49.8412V54.6253C161.295 55.2207 161.072 55.7416 160.626 56.1882C160.179 56.6347 159.637 56.858 158.999 56.858H130.358ZM161.87 28.5994C162.507 28.5994 163.039 28.8226 163.464 29.2691C163.89 29.7157 164.102 30.2366 164.102 30.832V35.4886C164.102 36.1265 163.89 36.6687 163.464 37.1152C163.039 37.5617 162.507 37.785 161.87 37.785H130.358C129.762 37.785 129.241 37.5617 128.795 37.1152C128.348 36.6687 128.125 36.1265 128.125 35.4886V30.832C128.125 30.2366 128.348 29.7157 128.795 29.2691C129.241 28.8226 129.762 28.5994 130.358 28.5994H161.87ZM178.901 28.5994C179.497 28.5994 180.018 28.8226 180.464 29.2691C180.911 29.7157 181.134 30.2366 181.134 30.832V73.5707C181.134 74.1661 180.911 74.687 180.464 75.1336C180.018 75.5801 179.497 75.8033 178.901 75.8033H174.053C173.458 75.8033 172.937 75.5801 172.49 75.1336C172.044 74.687 171.821 74.1661 171.821 73.5707V30.832C171.821 30.2366 172.044 29.7157 172.49 29.2691C172.937 28.8226 173.458 28.5994 174.053 28.5994H178.901ZM202.184 66.6815C202.822 66.6815 203.354 66.9048 203.779 67.3513C204.204 67.7978 204.417 68.3187 204.417 68.9141V73.5707C204.417 74.1661 204.204 74.687 203.779 75.1336C203.354 75.5801 202.822 75.8033 202.184 75.8033H187.321C186.684 75.8033 186.152 75.5801 185.727 75.1336C185.301 74.687 185.089 74.1661 185.089 73.5707V68.9141C185.089 68.3187 185.301 67.7978 185.727 67.3513C186.152 66.9048 186.684 66.6815 187.321 66.6815H202.184ZM228.465 49.586C229.061 49.586 229.582 49.7986 230.028 50.2239C230.475 50.6491 230.698 51.1807 230.698 51.8186V56.9217C230.698 57.5171 230.475 58.0381 230.028 58.4846C229.582 58.9311 229.061 59.1544 228.465 59.1544H210.86C210.222 59.1544 209.69 58.9311 209.265 58.4846C208.84 58.0381 208.627 57.5171 208.627 56.9217V51.8186C208.627 51.1807 208.84 50.6491 209.265 50.2239C209.69 49.7986 210.222 49.586 210.86 49.586H228.465ZM272.735 51.4997C274.947 52.8605 276.562 54.8167 277.583 57.3683C278.178 58.7291 278.476 60.4089 278.476 62.4076C278.476 65.512 277.647 68.1167 275.988 70.2218C274.33 72.3268 271.906 73.8897 268.716 74.9103C266.718 75.5907 264.358 75.9309 261.636 75.9309H241.287C240.692 75.9309 240.171 75.7077 239.724 75.2611C239.278 74.8146 239.054 74.2937 239.054 73.6983V69.1055C239.054 68.4676 239.278 67.9254 239.724 67.4789C240.171 67.0323 240.692 66.8091 241.287 66.8091H262.146C264.613 66.8091 266.441 66.3625 267.632 65.4695C268.653 64.619 269.163 63.4601 269.163 61.993C269.163 60.5258 268.631 59.3245 267.568 58.3889C266.25 57.2407 264.272 56.6666 261.636 56.6666H241.287C240.692 56.6666 240.171 56.4433 239.724 55.9968C239.278 55.5503 239.054 55.0081 239.054 54.3702V49.9687C239.054 49.3734 239.278 48.8524 239.724 48.4059C240.171 47.9594 240.692 47.7361 241.287 47.7361H260.488C262.316 47.7361 263.741 47.4172 264.762 46.7793C265.484 46.354 266.059 45.7374 266.484 44.9294C266.781 44.334 266.93 43.643 266.93 42.8562C266.93 42.0695 266.824 41.3572 266.611 40.7193C266.441 40.209 266.144 39.7412 265.718 39.3159C264.783 38.2528 263.231 37.7212 261.062 37.7212H241.287C240.692 37.7212 240.171 37.4979 239.724 37.0514C239.278 36.6049 239.054 36.0627 239.054 35.4248V30.832C239.054 30.2366 239.278 29.7157 239.724 29.2691C240.171 28.8226 240.692 28.5994 241.287 28.5994H260.488C265.761 28.5994 269.822 30.0878 272.671 33.0646C275.095 35.4886 276.307 38.5292 276.307 42.1865C276.307 46.0989 275.117 49.2033 272.735 51.4997ZM293.339 28.5994C293.934 28.5994 294.455 28.8226 294.902 29.2691C295.348 29.7157 295.572 30.2366 295.572 30.832V73.5707C295.572 74.1661 295.348 74.687 294.902 75.1336C294.455 75.5801 293.934 75.8033 293.339 75.8033H288.491C287.896 75.8033 287.375 75.5801 286.928 75.1336C286.482 74.687 286.258 74.1661 286.258 73.5707V30.832C286.258 30.2366 286.482 29.7157 286.928 29.2691C287.375 28.8226 287.896 28.5994 288.491 28.5994H293.339ZM316.622 66.6815C317.26 66.6815 317.792 66.9048 318.217 67.3513C318.642 67.7978 318.855 68.3187 318.855 68.9141V73.5707C318.855 74.1661 318.642 74.687 318.217 75.1336C317.792 75.5801 317.26 75.8033 316.622 75.8033H301.759C301.121 75.8033 300.59 75.5801 300.165 75.1336C299.739 74.687 299.527 74.1661 299.527 73.5707V68.9141C299.527 68.3187 299.739 67.7978 300.165 67.3513C300.59 66.9048 301.121 66.6815 301.759 66.6815H316.622ZM343.541 29.1097C344.051 29.5349 344.307 30.109 344.307 30.832V35.6162C344.307 36.169 344.147 36.6474 343.828 37.0514C343.509 37.4554 343.073 37.7212 342.52 37.8488C339.799 38.4016 337.481 39.6987 335.567 41.7399C332.973 44.4616 331.676 48.0019 331.676 52.3608C331.676 56.7197 332.973 60.2813 335.567 63.0455C337.481 65.0442 339.799 66.32 342.52 66.8729C343.073 67.0004 343.509 67.2662 343.828 67.6702C344.147 68.0742 344.307 68.5526 344.307 69.1055V73.8897C344.307 74.5701 344.051 75.1442 343.541 75.612C343.073 75.9522 342.584 76.1223 342.074 76.1223H341.691C336.758 75.3143 332.527 73.0817 328.997 69.4244C324.574 64.8741 322.363 59.2075 322.363 52.4246C322.363 45.6417 324.574 39.9326 328.997 35.2972C332.442 31.725 336.673 29.5137 341.691 28.6631C342.372 28.5356 342.988 28.6844 343.541 29.1097ZM363.571 35.2972C367.994 39.9326 370.205 45.6417 370.205 52.4246C370.205 59.2075 367.994 64.8741 363.571 69.4244C360.041 73.0817 355.81 75.3143 350.877 76.1223H350.494C349.984 76.1223 349.495 75.9522 349.027 75.612C348.517 75.1442 348.262 74.5701 348.262 73.8897V69.1055C348.262 68.5526 348.421 68.0742 348.74 67.6702C349.059 67.2662 349.495 67.0004 350.048 66.8729C352.769 66.32 355.087 65.0442 357.001 63.0455C359.595 60.2813 360.892 56.7197 360.892 52.3608C360.892 48.0019 359.595 44.4616 357.001 41.7399C355.087 39.6987 352.769 38.4016 350.048 37.8488C349.495 37.7212 349.059 37.4554 348.74 37.0514C348.421 36.6474 348.262 36.169 348.262 35.6162V30.832C348.262 30.109 348.527 29.5349 349.059 29.1097C349.59 28.6844 350.196 28.5356 350.877 28.6631C355.895 29.5137 360.126 31.725 363.571 35.2972ZM402.929 37.8488C402.419 37.7637 401.993 37.5086 401.653 37.0833C401.313 36.6581 401.143 36.1903 401.143 35.68V30.832C401.143 30.1941 401.398 29.62 401.908 29.1097C402.461 28.6844 403.078 28.5356 403.758 28.6631C408.776 29.5137 413.029 31.7463 416.516 35.361C418.302 37.2322 419.748 39.3585 420.854 41.7399C421.024 42.0376 421.098 42.3778 421.077 42.7606C421.056 43.1433 420.939 43.5048 420.726 43.845C420.513 44.1852 420.248 44.451 419.929 44.6423C419.61 44.8337 419.259 44.9294 418.876 44.9294H413.454C413.071 44.9294 412.71 44.8337 412.37 44.6423C412.029 44.451 411.753 44.1852 411.54 43.845C410.945 42.9519 410.392 42.2502 409.882 41.7399C407.968 39.7837 405.65 38.4867 402.929 37.8488ZM396.422 29.1097C396.933 29.62 397.188 30.1941 397.188 30.832V35.68C397.188 36.1903 397.018 36.6581 396.678 37.0833C396.337 37.5086 395.912 37.7637 395.402 37.8488C392.68 38.4867 390.362 39.7837 388.449 41.7399C385.812 44.5892 384.494 48.1507 384.494 52.4246C384.494 56.6985 385.812 60.26 388.449 63.1093C390.277 65.0655 392.595 66.3625 395.402 67.0004C395.912 67.0855 396.337 67.3406 396.678 67.7659C397.018 68.1912 397.188 68.659 397.188 69.1693V74.0172C397.188 74.6977 396.911 75.2718 396.359 75.7396C395.933 76.0798 395.465 76.2499 394.955 76.2499H394.572C389.469 75.3143 385.217 73.0604 381.815 69.4882C377.392 64.9379 375.181 59.2501 375.181 52.4246C375.181 45.5992 377.392 39.9113 381.815 35.361C385.259 31.7463 389.512 29.5137 394.572 28.6631C395.253 28.5356 395.869 28.6844 396.422 29.1097ZM423.086 51.1169C423.129 51.4146 423.15 51.8611 423.15 52.4565C423.15 53.3921 423.086 54.4765 422.959 55.7098C422.321 61.1106 420.173 65.7034 416.516 69.4882C413.029 73.1029 408.776 75.3568 403.758 76.2499H403.375C402.865 76.2499 402.376 76.0798 401.908 75.7396C401.398 75.2292 401.143 74.6551 401.143 74.0172V69.1693C401.143 68.659 401.313 68.1912 401.653 67.7659C401.993 67.3406 402.419 67.0855 402.929 67.0004C405.736 66.3625 408.053 65.0655 409.882 63.1093C411.37 61.5358 412.433 59.7285 413.071 57.6872H399.548C398.91 57.6872 398.379 57.4746 397.953 57.0493C397.528 56.6241 397.315 56.0925 397.315 55.4546V50.9256C397.315 50.3302 397.528 49.8093 397.953 49.3627C398.379 48.9162 398.91 48.6929 399.548 48.6929H420.854C421.449 48.6929 421.959 48.8949 422.385 49.2989C422.81 49.7029 423.044 50.2026 423.086 50.798V51.1169Z" fill="#EEEEEE"/>
</g>
<defs>
<clipPath id="clip0_0_3">
<rect width="423.15" height="105.373" fill="white"/>
</clipPath>
</defs>
</svg>
