<svg width="423.15000000000003" height="105.37303328456527" viewBox="0 0 369.89473684210526 92.11137992921816" class="looka-1j8o68f"><defs id="SvgjsDefs2247"></defs><g id="SvgjsG2248" featurekey="symbolFeature-0" transform="matrix(0.061407586619478774,0,0,0.061407586619478774,-0.4974014750429133,-0.4666976524517549)" fill="#fe1817"><path xmlns="http://www.w3.org/2000/svg" d="M1423.2,552.6L963.1,92.5C908.3,37.7,835.5,7.6,758.1,7.6c-77.4,0-150.2,30.1-204.9,84.9L93,552.6  C38.3,607.4,8.1,680.2,8.1,757.6C8.1,835,38.3,907.7,93,962.5l460.1,460.2c54.7,54.7,127.5,84.9,204.9,84.9  c77.4,0,150.2-30.2,204.9-84.9l460.2-460.2c54.7-54.7,84.9-127.5,84.9-204.9C1508.1,680.2,1477.9,607.3,1423.2,552.6z M1381.1,920.4  L921,1380.6c-43.5,43.5-101.4,67.5-162.8,67.5c-61.5,0-119.3-24-162.8-67.5l-354.2-354.2h304.6l101.4,175.7h222l111-192.2  l-111-192.2h-222L545.7,993.2H208l-72.8-72.8c-43.5-43.5-67.5-101.3-67.5-162.8s24-119.3,67.5-162.8l460.1-460.1  c43.5-43.5,101.3-67.4,162.8-67.4s119.3,23.9,162.8,67.4l360.8,360.8H970.5L869.1,319.7h-222l-111,192.2l111,192.2h222l101.4-175.7  h344.3l66.3,66.3c43.5,43.5,67.5,101.3,67.5,162.8C1448.6,819.1,1424.6,876.9,1381.1,920.4z M604.9,1009.8l76.6-132.7h153.2  l76.6,132.7l-76.6,132.7H681.5L604.9,1009.8z M911.3,511.9l-76.6,132.7H681.5l-76.6-132.7l76.6-132.7h153.2L911.3,511.9z   M974.3,610.6l-73.9,128H615.8l-73.9-128H372.2l-84.9,147l84.9,147h169.7l73.9-128h284.6l73.9,128H1144l84.8-147l-84.8-147H974.3z"></path></g><g id="SvgjsG2249" featurekey="nameFeature-0" transform="matrix(1.3940257195310792,0,0,1.3940257195310792,107.48335765250974,11.059745463582258)" fill="#fe5757"><path d="M24.4 33.92 q0.6 0 1 0.42 t0.4 1.02 l0 2.92 q0 0.56 -0.4 0.98 t-1 0.42 l-19.76 0 q-0.56 0 -0.98 -0.42 t-0.42 -0.98 l0 -2.92 q0 -0.6 0.42 -1.02 t0.98 -0.42 l19.76 0 z M4.64 27.72 q-0.56 0 -0.98 -0.42 t-0.42 -0.98 l0 -3 q0 -0.56 0.42 -0.98 t0.98 -0.42 l17.96 0 q0.6 0 1.02 0.42 t0.42 0.98 l0 3 q0 0.56 -0.42 0.98 t-1.02 0.42 l-17.96 0 z M24.4 10 q0.6 0 1 0.42 t0.4 0.98 l0 2.92 q0 0.6 -0.4 1.02 t-1 0.42 l-19.76 0 q-0.56 0 -0.98 -0.42 t-0.42 -1.02 l0 -2.92 q0 -0.56 0.42 -0.98 t0.98 -0.42 l19.76 0 z M35.08 10 q0.56 0 0.98 0.42 t0.42 0.98 l0 26.8 q0 0.56 -0.42 0.98 t-0.98 0.42 l-3.04 0 q-0.56 0 -0.98 -0.42 t-0.42 -0.98 l0 -26.8 q0 -0.56 0.42 -0.98 t0.98 -0.42 l3.04 0 z M49.68000000000001 33.88 q0.6 0 1 0.42 t0.4 0.98 l0 2.92 q0 0.56 -0.4 0.98 t-1 0.42 l-9.32 0 q-0.6 0 -1 -0.42 t-0.4 -0.98 l0 -2.92 q0 -0.56 0.4 -0.98 t1 -0.42 l9.32 0 z M66.16 23.16 q0.56 0 0.98 0.4 t0.42 1 l0 3.2 q0 0.56 -0.42 0.98 t-0.98 0.42 l-11.04 0 q-0.6 0 -1 -0.42 t-0.4 -0.98 l0 -3.2 q0 -0.6 0.4 -1 t1 -0.4 l11.04 0 z M93.92 24.36 q2.08 1.28 3.04 3.68 q0.56 1.28 0.56 3.16 q0 2.92 -1.56 4.9 t-4.56 2.94 q-1.88 0.64 -4.44 0.64 l-12.76 0 q-0.56 0 -0.98 -0.42 t-0.42 -0.98 l0 -2.88 q0 -0.6 0.42 -1.02 t0.98 -0.42 l13.08 0 q2.32 0 3.44 -0.84 q0.96 -0.8 0.96 -2.18 t-1 -2.26 q-1.24 -1.08 -3.72 -1.08 l-12.76 0 q-0.56 0 -0.98 -0.42 t-0.42 -1.02 l0 -2.76 q0 -0.56 0.42 -0.98 t0.98 -0.42 l12.04 0 q1.72 0 2.68 -0.6 q0.68 -0.4 1.08 -1.16 q0.28 -0.56 0.28 -1.3 t-0.2 -1.34 q-0.16 -0.48 -0.56 -0.88 q-0.88 -1 -2.92 -1 l-12.4 0 q-0.56 0 -0.98 -0.42 t-0.42 -1.02 l0 -2.88 q0 -0.56 0.42 -0.98 t0.98 -0.42 l12.04 0 q4.96 0 7.64 2.8 q2.28 2.28 2.28 5.72 q0 3.68 -2.24 5.84 z M106.84 10 q0.56 0 0.98 0.42 t0.42 0.98 l0 26.8 q0 0.56 -0.42 0.98 t-0.98 0.42 l-3.04 0 q-0.56 0 -0.98 -0.42 t-0.42 -0.98 l0 -26.8 q0 -0.56 0.42 -0.98 t0.98 -0.42 l3.04 0 z M121.44 33.88 q0.6 0 1 0.42 t0.4 0.98 l0 2.92 q0 0.56 -0.4 0.98 t-1 0.42 l-9.32 0 q-0.6 0 -1 -0.42 t-0.4 -0.98 l0 -2.92 q0 -0.56 0.4 -0.98 t1 -0.42 l9.32 0 z M138.32 10.32 q0.48 0.4 0.48 1.08 l0 3 q0 0.52 -0.3 0.9 t-0.82 0.5 q-2.56 0.52 -4.36 2.44 q-2.44 2.56 -2.44 6.66 t2.44 6.7 q1.8 1.88 4.36 2.4 q0.52 0.12 0.82 0.5 t0.3 0.9 l0 3 q0 0.64 -0.48 1.08 q-0.44 0.32 -0.92 0.32 l-0.24 0 q-4.64 -0.76 -7.96 -4.2 q-4.16 -4.28 -4.16 -10.66 t4.16 -10.74 q3.24 -3.36 7.96 -4.16 q0.64 -0.12 1.16 0.28 z M150.88 14.2 q4.16 4.36 4.16 10.74 t-4.16 10.66 q-3.32 3.44 -7.96 4.2 l-0.24 0 q-0.48 0 -0.92 -0.32 q-0.48 -0.44 -0.48 -1.08 l0 -3 q0 -0.52 0.3 -0.9 t0.82 -0.5 q2.56 -0.52 4.36 -2.4 q2.44 -2.6 2.44 -6.7 t-2.44 -6.66 q-1.8 -1.92 -4.36 -2.44 q-0.52 -0.12 -0.82 -0.5 t-0.3 -0.9 l0 -3 q0 -0.68 0.5 -1.08 t1.14 -0.28 q4.72 0.8 7.96 4.16 z M175.56 15.8 q-0.48 -0.08 -0.8 -0.48 t-0.32 -0.88 l0 -3.04 q0 -0.6 0.48 -1.08 q0.52 -0.4 1.16 -0.28 q4.72 0.8 8 4.2 q1.68 1.76 2.72 4 q0.16 0.28 0.14 0.64 t-0.22 0.68 t-0.5 0.5 t-0.66 0.18 l-3.4 0 q-0.36 0 -0.68 -0.18 t-0.52 -0.5 q-0.56 -0.84 -1.04 -1.32 q-1.8 -1.84 -4.36 -2.44 z M171.48 10.32 q0.48 0.48 0.48 1.08 l0 3.04 q0 0.48 -0.32 0.88 t-0.8 0.48 q-2.56 0.6 -4.36 2.44 q-2.48 2.68 -2.48 6.7 t2.48 6.7 q1.72 1.84 4.36 2.44 q0.48 0.08 0.8 0.48 t0.32 0.88 l0 3.04 q0 0.64 -0.52 1.08 q-0.4 0.32 -0.88 0.32 l-0.24 0 q-4.8 -0.88 -8 -4.24 q-4.16 -4.28 -4.16 -10.7 t4.16 -10.7 q3.24 -3.4 8 -4.2 q0.64 -0.12 1.16 0.28 z M188.2 24.119999999999997 q0.04 0.28 0.04 0.84 q0 0.88 -0.12 2.04 q-0.6 5.08 -4.04 8.64 q-3.28 3.4 -8 4.24 l-0.24 0 q-0.48 0 -0.92 -0.32 q-0.48 -0.48 -0.48 -1.08 l0 -3.04 q0 -0.48 0.32 -0.88 t0.8 -0.48 q2.64 -0.6 4.36 -2.44 q1.4 -1.48 2 -3.4 l-8.48 0 q-0.6 0 -1 -0.4 t-0.4 -1 l0 -2.84 q0 -0.56 0.4 -0.98 t1 -0.42 l13.36 0 q0.56 0 0.96 0.38 t0.44 0.94 l0 0.2 z"></path></g></svg>