<svg width="250" height="50" viewBox="0 0 369.89473684210526 92.11137992921816" class="looka-1j8o68f">
    <defs id="SvgjsDefs2605"></defs>
    <g id="SvgjsG2606" featurekey="symbolFeature-0" transform="matrix(0.061407586619478774,0,0,0.061407586619478774,-0.4974014750429133,-0.4666976524517549)" fill="#004aac"><path xmlns="http://www.w3.org/2000/svg" d="M1423.2,552.6L963.1,92.5C908.3,37.7,835.5,7.6,758.1,7.6c-77.4,0-150.2,30.1-204.9,84.9L93,552.6  C38.3,607.4,8.1,680.2,8.1,757.6C8.1,835,38.3,907.7,93,962.5l460.1,460.2c54.7,54.7,127.5,84.9,204.9,84.9  c77.4,0,150.2-30.2,204.9-84.9l460.2-460.2c54.7-54.7,84.9-127.5,84.9-204.9C1508.1,680.2,1477.9,607.3,1423.2,552.6z M1381.1,920.4  L921,1380.6c-43.5,43.5-101.4,67.5-162.8,67.5c-61.5,0-119.3-24-162.8-67.5l-354.2-354.2h304.6l101.4,175.7h222l111-192.2  l-111-192.2h-222L545.7,993.2H208l-72.8-72.8c-43.5-43.5-67.5-101.3-67.5-162.8s24-119.3,67.5-162.8l460.1-460.1  c43.5-43.5,101.3-67.4,162.8-67.4s119.3,23.9,162.8,67.4l360.8,360.8H970.5L869.1,319.7h-222l-111,192.2l111,192.2h222l101.4-175.7  h344.3l66.3,66.3c43.5,43.5,67.5,101.3,67.5,162.8C1448.6,819.1,1424.6,876.9,1381.1,920.4z M604.9,1009.8l76.6-132.7h153.2  l76.6,132.7l-76.6,132.7H681.5L604.9,1009.8z M911.3,511.9l-76.6,132.7H681.5l-76.6-132.7l76.6-132.7h153.2L911.3,511.9z   M974.3,610.6l-73.9,128H615.8l-73.9-128H372.2l-84.9,147l84.9,147h169.7l73.9-128h284.6l73.9,128H1144l84.8-147l-84.8-147H974.3z">
</path></g>

</svg>